<svg width="64" height="64" viewBox="0 0 64 64" fill="none" xmlns="http://www.w3.org/2000/svg">
<g clip-path="url(#clip0_100_119083)">
<path d="M34.6679 26.6667C34.6679 28.1387 33.4732 29.3333 32.0012 29.3333C30.5292 29.3333 29.3346 28.1387 29.3346 26.6667C29.3346 25.1947 30.5292 24 32.0012 24C33.4732 24 34.6679 25.1947 34.6679 26.6667ZM45.3346 24C43.8626 24 42.6679 25.1947 42.6679 26.6667C42.6679 28.1387 43.8626 29.3333 45.3346 29.3333C46.8066 29.3333 48.0012 28.1387 48.0012 26.6667C48.0012 25.1947 46.8066 24 45.3346 24ZM18.6679 24C17.1959 24 16.0012 25.1947 16.0012 26.6667C16.0012 28.1387 17.1959 29.3333 18.6679 29.3333C20.1399 29.3333 21.3346 28.1387 21.3346 26.6667C21.3346 25.1947 20.1399 24 18.6679 24ZM64.0012 9.33333V44C64.0012 49.1467 59.8146 53.3333 54.6679 53.3333H45.2492L34.6226 62.12C33.8892 62.7733 32.9532 63.1013 32.0146 63.1013C31.0652 63.1013 30.1052 62.7653 29.3452 62.0907L18.9506 53.3333H9.33724C4.19057 53.3333 0.00390752 49.1467 0.00390752 44V9.33333C0.00124086 4.18667 4.18791 0 9.33457 0H54.6679C59.8146 0 64.0012 4.18667 64.0012 9.33333ZM61.3346 9.33333C61.3346 5.65867 58.3452 2.66667 54.6679 2.66667H9.33457C5.65724 2.66667 2.66791 5.65867 2.66791 9.33333V44C2.66791 47.6747 5.65724 50.6667 9.33457 50.6667H19.4359C19.7506 50.6667 20.0546 50.7787 20.2946 50.9813L31.0892 60.0747C31.6199 60.5493 32.3826 60.544 32.8866 60.096L43.9212 50.9733C44.1612 50.776 44.4599 50.6667 44.7692 50.6667H54.6679C58.3452 50.6667 61.3346 47.6747 61.3346 44V9.33333Z" fill="white"/>
</g>
<defs>
<clipPath id="clip0_100_119083">
<rect width="64" height="64" fill="white"/>
</clipPath>
</defs>
</svg>
