<svg width="76" height="76" viewBox="0 0 76 76" fill="none" xmlns="http://www.w3.org/2000/svg">
<g clip-path="url(#clip0_100_116476)">
<path d="M64.9557 70.3098L63.3356 62.1737C63.2172 61.5784 62.6386 61.1915 62.0434 61.3106C61.4481 61.4291 61.0619 62.0077 61.1802 62.6029L62.7939 70.7071C62.8507 71.13 62.914 72.1059 62.4113 72.6848C61.5535 73.6728 59.7095 73.1632 55.0003 73.3016V62.9442C55.0003 62.3372 54.5085 61.8453 53.9014 61.8453C53.2944 61.8453 52.8025 62.3372 52.8025 62.9442V73.3016H32.3138C31.7067 73.3016 31.2148 73.7935 31.2148 74.4006C31.2148 75.0076 31.7067 75.4995 32.3138 75.4995H60.5109C62.0815 75.4995 63.279 75.0373 64.0705 74.1259C64.9739 73.0857 65.189 71.4759 64.9557 70.3098Z" fill="white"/>
<path d="M62.3353 57.1442C61.7491 54.9459 61.9546 52.0965 59.1103 49.8686C57.4856 48.5992 56.9848 48.6868 47.6643 45.9374L44.7754 43.9838V42.1625C50.0459 39.3029 52.5789 34.2326 52.5789 29.2602V29.0573C56.1767 28.3922 57.9334 24.7714 55.9284 22.0608C55.9295 22.0444 55.9873 17.9877 55.8052 16.2828C53.9634 0.757052 34.4452 -4.93093 24.5355 6.61349C24.1356 7.06993 24.1812 7.76427 24.6376 8.16417C25.0942 8.56407 25.7884 8.51837 26.1884 8.06207C34.3562 -1.37634 49.8929 2.33908 53.1698 14.232L53.1877 14.2979C53.9281 17.0333 53.6869 18.9368 53.7343 20.382C53.0835 20.1138 52.3603 19.9585 51.5977 19.9438C50.8098 19.5124 50.1398 18.7658 49.7809 17.7814C49.5967 17.2399 49.5264 16.9636 49.4712 16.0534C49.4494 15.1939 49.0567 14.3839 48.3938 13.8308C46.1005 11.9172 44.1354 14.8498 31.7001 13.3926L30.0439 13.1624C28.2562 12.884 26.602 14.226 26.5545 16.0633C26.5292 16.594 26.4993 16.9179 26.3361 17.5079C25.9753 18.7156 25.2613 19.3249 25.3117 19.2725C25.0314 19.5551 24.7233 19.7831 24.4286 19.9438C23.6658 19.9585 22.9422 20.1136 22.2912 20.3821C22.2961 17.1729 22.309 15.0782 23.6093 12.1135C23.8529 11.5578 23.6001 10.9096 23.0442 10.6658C22.4884 10.4222 21.8404 10.6751 21.5965 11.231C20.7121 13.2478 20.2076 15.4024 20.111 17.6471C20.111 17.6619 20.076 21.7651 20.0975 22.0611C18.0852 24.7813 19.859 28.3945 23.4476 29.0576C23.5157 38.6551 31.0746 42.0166 31.1866 42.128C31.1961 42.1332 31.206 42.1384 31.2155 42.1436V44.0009L28.3711 45.9244C19.8322 48.443 19.0885 48.6576 18.9874 48.6953C16.5958 49.5871 14.7825 51.4917 14.2359 54.2302C10.8902 71.0368 11.032 70.314 11.024 70.3707C10.6036 73.341 12.1724 75.4998 15.4793 75.4998H27.1866C27.7936 75.4998 28.2855 75.0079 28.2855 74.4009C28.2855 73.7939 27.7936 73.302 27.1866 73.302H23.2271V62.9447C23.2271 62.3377 22.7352 61.8458 22.1282 61.8458C21.5212 61.8458 21.0293 62.3377 21.0293 62.9447V73.3021H15.4791C13.7001 73.3021 12.9526 72.5227 13.1963 70.7075C16.6728 53.8036 16.1925 53.7166 17.6279 52.1588C18.1992 51.5381 18.9332 51.0672 19.7216 50.7672C27.7681 48.3937 28.1165 48.291 28.1207 48.2897C28.1231 48.2889 28.128 48.2875 28.1384 48.2844C30.2567 54.1747 30.1141 53.9246 30.3213 54.2878C30.89 55.2847 32.1921 55.7654 33.4161 55.0577C33.7152 54.9392 36.3051 53.9125 36.6855 53.7616V62.9444C36.6855 63.5514 37.1774 64.0433 37.7844 64.0433C38.3914 64.0433 38.8833 63.5514 38.8833 62.9444V53.7121C43.647 55.4429 42.2882 54.93 42.8488 55.1927C43.9991 55.7317 45.4164 55.1828 45.8633 53.9299L47.8756 48.291C57.5669 51.1496 55.0701 50.425 55.4897 50.5369C55.5783 50.5899 58.8941 51.1233 59.5994 54.6591L60.1796 57.5733C60.2981 58.1686 60.8768 58.5551 61.4719 58.4365C62.0674 58.318 62.4537 57.7394 62.3353 57.1442ZM52.5789 22.2964C55.2313 23.0853 55.2296 26.0143 52.5789 26.8029V22.2964ZM23.448 26.8031C20.7953 26.0144 20.7958 23.0847 23.448 22.2962V26.8031ZM26.5091 33.8097C25.3916 30.9902 25.6459 29.4903 25.6459 21.7797C27.3927 20.7496 28.6829 18.7941 28.7526 16.1092C28.7651 15.6141 29.2255 15.2585 29.7051 15.3338L30.0426 15.3851C31.0883 15.4353 36.4977 16.7165 46.3211 15.334C46.5585 15.2972 46.8014 15.3642 46.9861 15.5181C47.2543 15.7421 47.2662 15.9893 47.2786 16.2026C47.3487 18.1488 48.0666 19.9034 49.5047 21.1478L49.4968 21.141C49.7 21.3243 50.0573 21.5897 50.3806 21.7794C50.3806 21.8166 50.381 29.1244 50.381 29.2604C50.381 38.1251 41.0643 44.5864 32.3375 40.2512C32.3329 40.2489 32.3263 40.2455 32.3197 40.2424L32.3194 40.2423C29.758 38.9115 27.632 36.6539 26.5091 33.8097ZM32.24 53.2011C32.2086 53.1982 32.3147 53.4179 30.1479 47.3761L32.0708 46.0759L36.0701 51.6417C32.2959 53.1527 32.454 53.0425 32.24 53.2011ZM37.8191 50.3091L33.4138 44.1783V43.0809C35.8145 43.8746 37.773 43.8114 37.9069 43.8237V43.8141C37.9135 43.8141 37.9201 43.8146 37.9268 43.8146L37.9269 43.8238C39.9664 43.7888 41.1487 43.5621 42.5775 43.0929V44.19L37.8191 50.3091ZM43.7911 53.1969C43.7664 53.2192 43.7262 53.1329 43.4922 53.0478C43.1913 52.9385 40.0419 51.7949 39.579 51.6267L43.9129 46.0536L45.8684 47.3761L43.7911 53.1969Z" fill="white"/>
<path d="M28.1189 48.2891C28.1148 48.2902 28.1195 48.2889 28.1189 48.2891V48.2891Z" fill="white"/>
</g>
<defs>
<clipPath id="clip0_100_116476">
<rect width="75" height="75" fill="white" transform="translate(0.5 0.5)"/>
</clipPath>
</defs>
</svg>
