<svg width="64" height="65" viewBox="0 0 64 65" fill="none" xmlns="http://www.w3.org/2000/svg">
<path fill-rule="evenodd" clip-rule="evenodd" d="M17.229 5.09278C14.5155 5.09278 12.3078 7.30126 12.3078 10.0144C12.3078 12.7274 14.5154 14.9359 17.229 14.9359H50.7644C51.2512 14.9359 51.6554 14.5773 51.6849 14.1194C51.7015 13.8625 51.6104 13.6205 51.4286 13.4377C51.264 13.2733 51.0436 13.182 50.8101 13.182L17.7537 13.1819C16.0381 13.1819 14.6171 11.7854 14.5859 10.0692C14.5724 9.21162 14.8959 8.40318 15.4971 7.79226C16.0976 7.18244 16.8995 6.84679 17.755 6.84679L50.7643 6.84675C51.2511 6.84675 51.6554 6.48822 51.6847 6.03032C51.7013 5.77339 51.6103 5.53134 51.4285 5.34864C51.264 5.18531 51.0435 5.09282 50.81 5.09282L17.229 5.09278ZM50.7644 16.2514H17.229C13.7901 16.2514 10.9924 13.4538 10.9924 10.0144C10.9924 6.57501 13.7901 3.77738 17.229 3.77738L50.8101 3.77734C51.3938 3.77734 51.9437 4.00578 52.3587 4.41798C52.8061 4.86787 53.0381 5.48566 52.9975 6.11486C52.9238 7.26242 51.9429 8.16227 50.7642 8.16227L17.7549 8.16223C17.2548 8.16223 16.7858 8.35866 16.4346 8.71606C16.0826 9.07349 15.8933 9.54622 15.9012 10.0475C15.9194 11.0501 16.7504 11.8665 17.7537 11.8665L50.81 11.8665C51.3939 11.8665 51.9439 12.0938 52.3587 12.5071C52.806 12.957 53.0382 13.5736 52.9975 14.2039C52.9239 15.3515 51.943 16.2514 50.7644 16.2514Z" fill="white"/>
<path fill-rule="evenodd" clip-rule="evenodd" d="M51.1414 61.2211H16.4613C16.3268 61.2211 16.1972 61.2143 16.0992 61.2074C13.2344 61.0178 10.9922 58.621 10.9922 55.7503L10.9922 10.0131C10.9922 9.65001 11.2867 9.35547 11.65 9.35547C12.0132 9.35539 12.3077 9.65004 12.3077 10.0132V55.7503C12.3077 57.9301 14.0102 59.7515 16.1835 59.8954C16.2599 59.8999 16.363 59.9056 16.4612 59.9056H51.1414C51.4438 59.9056 51.6898 59.6625 51.6898 59.3644L51.6846 14.1605C51.6846 13.7974 51.9789 13.5028 52.3422 13.5028C52.7056 13.5028 53 13.7963 53 14.1606L53.0052 59.3644C53.0052 60.3887 52.1691 61.2211 51.1414 61.2211Z" fill="white"/>
<path fill-rule="evenodd" clip-rule="evenodd" d="M49.5252 13.1843C49.3578 13.1843 49.1904 13.1215 49.0622 12.9936C48.168 12.1074 47.6953 11.0787 47.6953 10.0167C47.6953 8.95814 48.1677 7.92821 49.0614 7.03867C49.3189 6.78281 49.7353 6.78403 49.9915 7.0421C50.2477 7.29899 50.2465 7.71581 49.9891 7.97159C49.3399 8.61784 49.0108 9.30532 49.0108 10.0167C49.0108 10.7292 49.3396 11.4167 49.9883 12.0595C50.2462 12.3153 50.2481 12.7321 49.9923 12.9902C49.8638 13.1192 49.6944 13.1843 49.5252 13.1843Z" fill="white"/>
<path fill-rule="evenodd" clip-rule="evenodd" d="M19.0132 61.2227C18.65 61.2227 18.3555 60.9281 18.3555 60.565V15.5952C18.3555 15.2309 18.65 14.9375 19.0132 14.9375C19.3764 14.9375 19.6709 15.231 19.6709 15.5952V60.565C19.6709 60.9281 19.3764 61.2227 19.0132 61.2227Z" fill="white"/>
<path fill-rule="evenodd" clip-rule="evenodd" d="M41.3668 26.1631H29.9937C29.6305 26.1631 29.3359 25.8697 29.3359 25.5054C29.3359 25.1423 29.6304 24.8477 29.9937 24.8477L41.3668 24.8477C41.73 24.8477 42.0245 25.1423 42.0245 25.5054C42.0245 25.8697 41.73 26.1631 41.3668 26.1631ZM41.3668 34.0992H29.9937C29.6305 34.0992 29.3359 33.8047 29.3359 33.4415C29.3359 33.0784 29.6304 32.7838 29.9937 32.7838L41.3668 32.7838C41.73 32.7838 42.0245 33.0784 42.0245 33.4415C42.0245 33.8047 41.73 34.0992 41.3668 34.0992Z" fill="white"/>
<path fill-rule="evenodd" clip-rule="evenodd" d="M29.9942 35.4085H26.8412C26.478 35.4085 26.1836 35.1139 26.1836 34.7508C26.1836 34.3877 26.478 34.0931 26.8412 34.0931L29.3364 34.093V24.8506H26.8412C26.478 24.8506 26.1836 24.5572 26.1836 24.1929C26.1836 23.8298 26.478 23.5352 26.8412 23.5352L29.9942 23.5352C30.3574 23.5352 30.6518 23.8298 30.6518 24.1929V34.7508C30.6518 35.1139 30.3574 35.4085 29.9942 35.4085Z" fill="white"/>
<path fill-rule="evenodd" clip-rule="evenodd" d="M24.3467 35.8381H26.1844V23.1084H24.3467V35.8381ZM26.842 37.1536H23.689C23.3258 37.1536 23.0312 36.859 23.0312 36.4959V22.4507C23.0312 22.0876 23.3258 21.793 23.689 21.793H26.842C27.2053 21.793 27.4997 22.0876 27.4997 22.4507V36.4959C27.4997 36.859 27.2053 37.1536 26.842 37.1536Z" fill="white"/>
<path fill-rule="evenodd" clip-rule="evenodd" d="M44.5178 35.4085H41.3648C41.0015 35.4085 40.707 35.1139 40.707 34.7508V24.1929C40.707 23.8298 41.0015 23.5352 41.3648 23.5352L44.5178 23.5352C44.881 23.5352 45.1754 23.8298 45.1754 24.1929C45.1755 24.5571 44.881 24.8506 44.5177 24.8506L42.0225 24.8506V34.093H44.5178C44.881 34.093 45.1754 34.3877 45.1754 34.7508C45.1755 35.1139 44.881 35.4086 44.5178 35.4085Z" fill="white"/>
<path fill-rule="evenodd" clip-rule="evenodd" d="M45.1788 35.8381H47.0163V23.1084H45.1788V35.8381ZM47.674 37.1536H44.521C44.1578 37.1536 43.8633 36.859 43.8633 36.4959L43.8633 22.4507C43.8633 22.0876 44.1578 21.793 44.521 21.793H47.674C48.0373 21.793 48.3317 22.0876 48.3317 22.4507L48.3318 36.4959C48.3318 36.859 48.0372 37.1536 47.674 37.1536Z" fill="white"/>
<path fill-rule="evenodd" clip-rule="evenodd" d="M37.4761 54.3653H33.883C33.5324 54.3653 33.2434 54.0902 33.226 53.7408L32.2235 33.4757C32.2056 33.1125 32.485 32.8042 32.848 32.786C33.2097 32.7688 33.5194 33.0475 33.5373 33.4106L34.5089 53.0498H36.8502L37.8218 33.4106C37.8397 33.0475 38.1481 32.7677 38.5111 32.786C38.874 32.8043 39.1536 33.1126 39.1356 33.4757L38.1331 53.7407C38.1157 54.0901 37.8267 54.3654 37.4761 54.3653Z" fill="white"/>
</svg>
