<svg width="75" height="75" viewBox="0 0 75 75" fill="none" xmlns="http://www.w3.org/2000/svg">
<path d="M40.3383 62.5859C39.9227 62.5859 39.5781 62.9305 39.5781 63.3461V69.7211C39.5781 70.1366 39.9227 70.4812 40.3383 70.4812C40.7538 70.4812 41.0984 70.1366 41.0984 69.7211V63.3461C41.0984 62.9204 40.7538 62.5859 40.3383 62.5859Z" fill="#E2AC6C"/>
<path d="M14.4945 62.5859C14.079 62.5859 13.7344 62.9305 13.7344 63.3461V69.7211C13.7344 70.1366 14.079 70.4812 14.4945 70.4812C14.9101 70.4812 15.2546 70.1366 15.2546 69.7211V63.3461C15.2546 62.9204 14.9101 62.5859 14.4945 62.5859Z" fill="#E2AC6C"/>
<path d="M69.8718 54.2855L64.7941 42.843H66.588C67.0137 42.843 67.3481 42.5085 67.3481 42.0828V38.5355C67.3481 38.12 67.0137 37.7754 66.588 37.7754H55.8143C56.0069 37.4004 56.1285 36.9646 56.1285 36.5085C56.1285 34.9781 54.8819 33.7213 53.3414 33.7213C51.8008 33.7213 50.5542 34.9781 50.5542 36.5085C50.5542 36.9646 50.6758 37.4004 50.8684 37.7754H40.0947C39.6691 37.7754 39.3346 38.12 39.3346 38.5355V42.0828C39.3346 42.5085 39.6691 42.843 40.0947 42.843H41.8887L41.1792 44.4443C40.115 43.9679 38.99 43.6538 37.8143 43.5017C37.49 43.4713 37.1657 43.4308 36.8312 43.4004C36.8008 43.2686 36.7299 43.147 36.6285 43.0558L34.4697 41.0085C34.3177 40.8666 34.115 40.7855 33.9224 40.8058C33.8312 40.8058 33.7299 40.8261 33.6488 40.8666V37.3294H33.6184C36.0001 35.7078 37.6015 33.1335 37.8143 30.1538C38.9697 29.8902 40.4292 28.897 40.6623 26.2923V26.2619C40.6724 26.12 40.7231 24.8328 39.9224 23.9916C39.74 23.8092 39.5272 23.6673 39.2839 23.5659C43.4596 12.4781 35.7772 7.09633 34.865 6.49836C26.9596 1.39025 20.4832 7.68417 19.49 8.71795C17.1488 9.71119 15.5576 11.3024 14.7569 13.4409C13.267 17.4038 14.9495 22.0862 15.6792 23.8193C15.3853 24.0321 15.061 24.3463 14.8278 24.8125C14.392 25.6842 14.4224 26.7585 14.8988 27.9544C14.9292 28.0659 15.6184 30.3463 17.5238 30.7416C17.8177 33.4173 19.1555 35.6774 21.1826 37.1774V40.8666C21.1015 40.8261 21.0001 40.8058 20.9089 40.8058C20.7062 40.7855 20.5137 40.8666 20.3616 41.0085L18.2028 43.0558C18.1015 43.147 18.0305 43.2686 18.0001 43.3903C17.6657 43.4308 17.3414 43.4713 17.017 43.5017C11.4427 44.1909 7.02379 48.772 6.49676 54.4071L5.07784 69.6504C5.0373 70.0659 5.34136 70.4409 5.7569 70.4815H5.82784C6.22311 70.4815 6.54744 70.1875 6.58798 69.7923L8.0069 54.549C8.47312 49.6234 12.3346 45.62 17.1995 45.0119C17.6049 44.9713 18.0001 44.9207 18.4055 44.8801L20.7062 50.6267C20.8177 50.9207 21.1015 51.1031 21.4056 51.1031C21.4765 51.1031 21.5474 51.093 21.6184 51.0727L24.0001 50.3936L24.9326 52.8767L23.392 69.6504C23.3515 70.0659 23.6555 70.4409 24.0812 70.4815H24.1522C24.5373 70.4815 24.8718 70.1875 24.9022 69.7923L26.4022 53.5254H28.4292L29.9292 69.7923C29.9596 70.1875 30.2941 70.4815 30.6792 70.4815H30.7501C31.1657 70.4409 31.4799 70.0659 31.4393 69.6504L29.8988 52.8767L30.8312 50.3936L33.213 51.0727C33.2839 51.093 33.3549 51.1031 33.4258 51.1031C33.7299 51.1031 34.0137 50.9207 34.1251 50.6267L36.4258 44.8801C36.8211 44.9207 37.2265 44.9612 37.6319 45.0119C38.6454 45.1436 39.6285 45.4173 40.561 45.8328L36.811 54.2855C36.7704 54.3767 36.7501 54.4781 36.7501 54.5896V54.6504C36.7603 56.5761 37.4292 58.1977 38.6657 59.3531C39.7805 60.3869 41.2704 60.9544 42.8718 60.9544C45.9022 60.9544 48.963 58.7957 48.9934 54.6504V54.5896C48.9934 54.4781 48.9731 54.3767 48.9326 54.2855L43.8549 42.843H51.061V64.2585C48.3954 64.9578 46.1251 66.8125 44.9799 69.4173C44.8684 69.6504 44.8988 69.924 45.0305 70.1369C45.1724 70.3497 45.4157 70.4815 45.6691 70.4815H61.0137C61.267 70.4815 61.5103 70.3497 61.6522 70.1369C61.7941 69.924 61.8143 69.6504 61.713 69.4173C60.5576 66.8125 58.2873 64.9477 55.6218 64.2585V42.843H62.8278L57.7603 54.2855C57.7197 54.3767 57.6893 54.4781 57.6893 54.5896V54.6504C57.7096 56.7179 58.49 58.299 59.6353 59.3531C60.7805 60.4173 62.3008 60.9544 63.811 60.9544C66.8414 60.9544 69.9022 58.7957 69.9326 54.6504V54.5896C69.9326 54.4781 69.9123 54.3767 69.8718 54.2855ZM20.6657 9.69092C21.6488 8.647 27.1724 3.33619 34.0441 7.77538C34.8245 8.28214 41.2197 12.7821 38.1691 22.1673C37.7231 20.9916 37.2468 19.0963 37.2164 16.3598C37.2062 16.1166 37.0947 15.8936 36.892 15.7517C36.6995 15.6098 36.4461 15.5693 36.2231 15.6402C36.142 15.6707 28.3177 18.1132 22.7535 14.2315C20.7265 12.0119 20.6353 10.2484 20.6657 9.69092ZM16.186 13.9679C16.7333 12.5186 17.7468 11.3835 19.1961 10.5625C19.3278 11.5254 19.7637 12.9139 20.99 14.495C19.713 15.1842 17.7062 16.9882 16.4697 21.549C15.8312 19.522 15.2231 16.5119 16.186 13.9679ZM18.9832 29.9916C18.9832 29.7889 18.892 29.5963 18.74 29.4646C18.5981 29.3328 18.4157 29.272 18.2231 29.272H18.1826C16.936 29.3632 16.3583 27.549 16.3278 27.468C16.0137 26.647 15.9528 25.968 16.1758 25.5119C16.3988 25.0457 16.865 24.9038 16.8751 24.8936C16.9157 24.8835 16.9461 24.8632 16.9866 24.8531C16.9968 24.843 17.0069 24.843 17.017 24.843L17.0272 24.8328C17.1082 24.7821 17.1893 24.7315 17.24 24.6605L17.2704 24.6301C17.311 24.5693 17.3515 24.5085 17.3718 24.4375C17.3819 24.4071 17.392 24.3869 17.4022 24.3666C17.4022 24.3362 17.4224 24.3159 17.4224 24.2855C18.5677 17.4848 21.2941 15.9544 22.115 15.6402C27.1015 18.9544 33.3549 17.9207 35.7164 17.3531C35.9697 22.2382 37.5711 24.4578 37.642 24.5592C37.6522 24.5693 37.6724 24.5794 37.6826 24.5896C37.7332 24.6504 37.7941 24.7011 37.865 24.7416C37.8954 24.7619 37.9157 24.7821 37.9461 24.7923C37.9461 24.8024 37.9562 24.8024 37.9664 24.8125C38.0576 24.8531 38.1691 24.8632 38.2704 24.8632C38.6049 24.8632 38.7468 24.9646 38.8278 25.0457C39.1116 25.3396 39.1522 25.9578 39.1522 26.1707C38.9191 28.6842 37.2974 28.7044 37.115 28.7044C36.9123 28.6943 36.6995 28.7754 36.5474 28.9173C36.3954 29.0592 36.3143 29.2619 36.3143 29.4646C36.3143 34.0558 32.4326 37.6538 27.4765 37.6538C22.6724 37.6538 19.186 34.5119 18.9832 29.9916ZM32.0069 42.5389L27.4157 47.5051L22.8245 42.5389H22.8549L22.7028 42.3767V38.0997C24.1116 38.7889 25.7231 39.174 27.4765 39.174C29.1589 39.174 30.74 38.8193 32.1285 38.1707V42.3767L31.9765 42.5389H32.0069ZM21.8616 49.4308L19.6218 43.8058L20.8481 42.6402L26.017 48.2348L21.8616 49.4308ZM28.6015 52.0051H26.2299L25.4697 49.968L27.4157 49.4105L29.3616 49.968L28.6015 52.0051ZM32.9697 49.4308L28.8143 48.2348L33.9833 42.6402L35.2096 43.8058L32.9697 49.4308ZM53.3414 35.2416C54.0407 35.2416 54.6083 35.8092 54.6083 36.5085C54.6083 37.2078 54.0407 37.7754 53.3414 37.7754C52.642 37.7754 52.0745 37.2078 52.0745 36.5085C52.0745 35.8092 52.642 35.2416 53.3414 35.2416ZM42.8718 59.4342C41.6555 59.4342 40.5305 59.0085 39.6995 58.2382C38.9292 57.5186 38.4731 56.5254 38.3312 55.3497H47.4022C47.0576 58.1369 44.9089 59.4342 42.8718 59.4342ZM47.0677 53.8294H38.6758L42.8718 44.3835L47.0677 53.8294ZM59.7468 68.9612H46.9461C48.3346 66.8125 50.7366 65.4747 53.3515 65.4747C55.9562 65.4747 58.3583 66.8125 59.7468 68.9612ZM52.5812 64.0051V42.843H54.1015V64.0051C53.8481 63.9848 53.6049 63.9544 53.3515 63.9544C53.088 63.9544 52.8346 63.9848 52.5812 64.0051ZM40.8549 41.3227V39.2957H65.8278V41.3227H40.8549ZM63.811 44.3835L68.0069 53.8294H59.615L63.811 44.3835ZM63.811 59.4342C61.7738 59.4342 59.6251 58.1369 59.2806 55.3497H68.3414C68.0069 58.1369 65.8481 59.4342 63.811 59.4342Z" fill="#E2AC6C"/>
</svg>
