<svg width="76" height="76" viewBox="0 0 76 76" fill="none" xmlns="http://www.w3.org/2000/svg">
<path d="M33.7549 56.6893H39.3064V34.4236H24.8486V61.5432H33.1611V57.283C33.1611 56.9564 33.4283 56.6893 33.7549 56.6893ZM40.4939 56.6893H42.2455C42.5721 56.6893 42.8393 56.9564 42.8393 57.283V61.5432H51.1666V41.2814H40.5088V56.6893H40.4939ZM42.8244 62.7307V65.2096C42.8244 65.5361 42.5572 65.8033 42.2307 65.8033H33.7549C33.4283 65.8033 33.1611 65.5361 33.1611 65.2096V62.7307C28.6041 62.7307 24.0322 62.7307 19.4752 62.7307V67.1689H56.5252V62.7307H42.8244ZM41.6369 57.8768H34.3486V64.6158H41.6369V57.8768ZM52.3393 61.5432H57.1189C57.4455 61.5432 57.7127 61.8104 57.7127 62.1369V67.7627C57.7127 68.0893 57.4455 68.3564 57.1189 68.3564H18.8814C18.5549 68.3564 18.2877 68.0893 18.2877 67.7627V62.1369C18.2877 61.8104 18.5549 61.5432 18.8814 61.5432H23.6611V33.8299C23.6611 33.6072 23.7502 33.4885 23.8838 33.3697L31.4838 26.2002V22.7119C31.4838 21.9252 32.6713 21.9252 32.6713 22.7119V26.2002L40.2713 33.3697C40.4049 33.4736 40.4939 33.6369 40.4939 33.8299V39.3221L45.2291 34.8393V31.2471C45.2291 30.4604 46.4166 30.4604 46.4166 31.2471V34.8393L52.1166 40.2275C52.2502 40.3314 52.3393 40.4947 52.3393 40.6877V61.5432ZM48.376 38.3127L45.8229 35.8932L41.3846 40.0791H50.2611L48.376 38.3127ZM35.5807 30.5643L32.0775 27.2541L25.7541 33.2213H38.401L35.5807 30.5643ZM38.3713 16.7744C38.1486 16.9525 37.8518 16.9525 37.6143 16.7744C36.2486 15.7947 34.69 15.1268 33.0721 14.7854C31.4393 14.4439 29.7322 14.4291 28.0697 14.7705C21.6127 16.0768 21.7314 19.7432 17.0557 23.3354C16.3135 23.9143 15.4822 24.4486 14.6658 24.79L19.4752 35.1213C19.8018 35.8338 18.733 36.3236 18.3916 35.6111L13.5229 25.1463C13.1963 25.2205 12.8697 25.2502 12.5432 25.2502L7.74864 35.626C7.42207 36.3385 6.35332 35.8338 6.67989 35.1361L11.3854 25.0127C9.66348 24.2408 8.84707 21.94 10.1533 20.2627C10.9994 19.1643 12.4986 18.7783 13.7752 19.3127C14.0721 19.4463 14.2205 19.7877 14.0869 20.0846C13.9533 20.3814 13.6119 20.5299 13.315 20.3963C11.5041 19.6244 9.82676 21.851 11.1924 23.4096C11.4002 23.6471 11.6377 23.8104 11.89 23.9291L12.5432 22.5189C12.751 22.0439 13.4041 22.0736 13.6119 22.5189L14.176 23.7361C15.2002 23.3057 16.2541 22.5338 17.1299 21.7619C20.9744 18.3924 21.2713 14.9635 27.8322 13.6127C31.1127 12.9447 34.5268 13.5236 37.3916 15.2307V8.2541C37.3916 7.46738 38.5791 7.46738 38.5791 8.2541V15.2307C41.4439 13.5236 44.8432 12.9447 48.1385 13.6127C55.1299 15.0377 55.0705 18.8971 59.6275 22.415C60.3252 22.9494 61.0674 23.4244 61.7947 23.7361L62.3588 22.5189C62.5814 22.0439 63.2346 22.0736 63.4424 22.5189L64.0955 23.9291C65.1939 23.4541 65.6986 22.0291 64.8971 20.99C64.3775 20.3072 63.4572 20.0697 62.6705 20.4111C62.3736 20.5447 62.0174 20.3963 61.8986 20.0994C61.765 19.8025 61.9135 19.4463 62.2104 19.3275C64.2291 18.4666 66.4705 19.9658 66.4705 22.1479C66.4705 23.3799 65.6838 24.5377 64.6002 25.0275L69.3057 35.151C69.6322 35.8635 68.5635 36.3533 68.2221 35.6408L63.4127 25.2799C63.0861 25.2947 62.7596 25.2502 62.433 25.176L57.5939 35.626C57.2674 36.3385 56.1986 35.8338 56.5103 35.1361L61.3197 24.8049C60.1768 24.315 59.0338 23.4838 58.0689 22.6525C54.2096 19.2682 53.9572 16.0025 47.9158 14.7854C44.5908 14.0877 41.1471 14.815 38.3713 16.7744ZM43.8932 46.6104V44.2205C43.8932 43.8939 44.1604 43.6268 44.4869 43.6268H47.1588C47.4854 43.6268 47.7525 43.8939 47.7525 44.2205V46.6104C47.7525 46.9369 47.4854 47.2041 47.1588 47.2041H44.4869C44.1604 47.2041 43.8932 46.9369 43.8932 46.6104ZM45.0807 44.8143V46.0166H46.565V44.8143H45.0807ZM43.8932 51.5236V49.1338C43.8932 48.8072 44.1604 48.54 44.4869 48.54H47.1588C47.4854 48.54 47.7525 48.8072 47.7525 49.1338V51.5236C47.7525 51.8502 47.4854 52.1174 47.1588 52.1174H44.4869C44.1604 52.1174 43.8932 51.8502 43.8932 51.5236ZM45.0807 49.7275V50.9299H46.565V49.7275H45.0807ZM43.8932 56.4221V54.0322C43.8932 53.7057 44.1604 53.4385 44.4869 53.4385H47.1588C47.4854 53.4385 47.7525 53.7057 47.7525 54.0322V56.4221C47.7525 56.7486 47.4854 57.0158 47.1588 57.0158H44.4869C44.1604 57.0307 43.8932 56.7486 43.8932 56.4221ZM45.0807 54.6408V55.8432H46.565V54.6408H45.0807ZM33.0572 39.7971V37.4072C33.0572 37.0807 33.3244 36.8135 33.651 36.8135H36.3229C36.6494 36.8135 36.9166 37.0807 36.9166 37.4072V39.7971C36.9166 40.1236 36.6494 40.3908 36.3229 40.3908H33.651C33.3244 40.3908 33.0572 40.1236 33.0572 39.7971ZM34.2447 38.001V39.2033H35.7143V38.001H34.2447ZM33.0572 44.7104V42.3205C33.0572 41.9939 33.3244 41.7268 33.651 41.7268H36.3229C36.6494 41.7268 36.9166 41.9939 36.9166 42.3205V44.7104C36.9166 45.0369 36.6494 45.3041 36.3229 45.3041H33.651C33.3244 45.3041 33.0572 45.0369 33.0572 44.7104ZM34.2447 42.9143V44.1166H35.7143V42.9143H34.2447ZM33.0572 49.6236V47.2338C33.0572 46.9072 33.3244 46.64 33.651 46.64H36.3229C36.6494 46.64 36.9166 46.9072 36.9166 47.2338V49.6236C36.9166 49.9502 36.6494 50.2174 36.3229 50.2174H33.651C33.3244 50.2174 33.0572 49.9502 33.0572 49.6236ZM34.2447 47.8275V49.0299H35.7143V47.8275H34.2447ZM33.0572 54.5369V52.1471C33.0572 51.8205 33.3244 51.5533 33.651 51.5533H36.3229C36.6494 51.5533 36.9166 51.8205 36.9166 52.1471V54.5369C36.9166 54.8635 36.6494 55.1307 36.3229 55.1307H33.651C33.3244 55.1307 33.0572 54.8635 33.0572 54.5369ZM34.2447 52.7408V53.9432H35.7143V52.7408H34.2447ZM27.2533 39.7971V37.4072C27.2533 37.0807 27.5205 36.8135 27.8471 36.8135H30.5189C30.8455 36.8135 31.1127 37.0807 31.1127 37.4072V39.7971C31.1127 40.1236 30.8455 40.3908 30.5189 40.3908H27.8471C27.5057 40.3908 27.2533 40.1236 27.2533 39.7971ZM28.4408 38.001V39.2033H29.9104V38.001H28.4408ZM27.2533 44.7104V42.3205C27.2533 41.9939 27.5205 41.7268 27.8471 41.7268H30.5189C30.8455 41.7268 31.1127 41.9939 31.1127 42.3205V44.7104C31.1127 45.0369 30.8455 45.3041 30.5189 45.3041H27.8471C27.5057 45.3041 27.2533 45.0369 27.2533 44.7104ZM28.4408 42.9143V44.1166H29.9104V42.9143H28.4408ZM27.2533 49.6236V47.2338C27.2533 46.9072 27.5205 46.64 27.8471 46.64H30.5189C30.8455 46.64 31.1127 46.9072 31.1127 47.2338V49.6236C31.1127 49.9502 30.8455 50.2174 30.5189 50.2174H27.8471C27.5057 50.2174 27.2533 49.9502 27.2533 49.6236ZM28.4408 47.8275V49.0299H29.9104V47.8275H28.4408ZM27.2533 54.5369V52.1471C27.2533 51.8205 27.5205 51.5533 27.8471 51.5533H30.5189C30.8455 51.5533 31.1127 51.8205 31.1127 52.1471V54.5369C31.1127 54.8635 30.8455 55.1307 30.5189 55.1307H27.8471C27.5057 55.1307 27.2533 54.8635 27.2533 54.5369ZM28.4408 52.7408V53.9432H29.9104V52.7408H28.4408ZM70.7603 37.8822C70.9088 37.5854 70.701 37.2439 70.3744 37.2439H55.4713C55.1299 37.2439 54.9369 37.5854 55.0854 37.8822C58.4994 44.7549 67.3314 44.7549 70.7603 37.8822ZM71.9924 37.615C72.0072 37.8822 71.9478 38.1494 71.8291 38.4018C67.9697 46.165 57.876 46.165 54.0314 38.4018C53.4971 37.3182 54.2838 36.0564 55.4861 36.0564H70.3893C71.2502 36.0713 71.9478 36.7689 71.9924 37.615ZM20.9299 37.8822C21.0783 37.5854 20.8705 37.2439 20.5439 37.2439H5.62598C5.29942 37.2439 5.09161 37.5854 5.24004 37.8822C8.66895 44.7549 17.501 44.7549 20.9299 37.8822ZM22.1619 37.615C22.1768 37.8822 22.1174 38.1494 21.9838 38.4018C18.1244 46.165 8.03067 46.165 4.18614 38.4018C3.65176 37.3182 4.43848 36.0564 5.64082 36.0564H20.5439C21.4197 36.0713 22.1174 36.7689 22.1619 37.615Z" fill="#E2AC6C"/>
</svg>
