<svg width="65" height="67" viewBox="0 0 65 67" fill="none" xmlns="http://www.w3.org/2000/svg">
<path d="M35.3383 58.5859C34.9227 58.5859 34.5781 58.9305 34.5781 59.3461V65.7211C34.5781 66.1366 34.9227 66.4812 35.3383 66.4812C35.7538 66.4812 36.0984 66.1366 36.0984 65.7211V59.3461C36.0984 58.9204 35.7538 58.5859 35.3383 58.5859Z" fill="white"/>
<path d="M9.49451 58.5859C9.07897 58.5859 8.73438 58.9305 8.73438 59.3461V65.7211C8.73438 66.1366 9.07897 66.4812 9.49451 66.4812C9.91005 66.4812 10.2546 66.1366 10.2546 65.7211V59.3461C10.2546 58.9204 9.91005 58.5859 9.49451 58.5859Z" fill="white"/>
<path d="M64.8718 50.2855L59.7941 38.843H61.588C62.0137 38.843 62.3481 38.5085 62.3481 38.0828V34.5355C62.3481 34.12 62.0137 33.7754 61.588 33.7754H50.8143C51.0069 33.4004 51.1285 32.9646 51.1285 32.5085C51.1285 30.9781 49.8819 29.7213 48.3414 29.7213C46.8008 29.7213 45.5542 30.9781 45.5542 32.5085C45.5542 32.9646 45.6758 33.4004 45.8684 33.7754H35.0947C34.6691 33.7754 34.3346 34.12 34.3346 34.5355V38.0828C34.3346 38.5085 34.6691 38.843 35.0947 38.843H36.8887L36.1792 40.4443C35.115 39.9679 33.99 39.6538 32.8143 39.5017C32.49 39.4713 32.1657 39.4308 31.8312 39.4004C31.8008 39.2686 31.7299 39.147 31.6285 39.0558L29.4697 37.0085C29.3177 36.8666 29.115 36.7855 28.9224 36.8058C28.8312 36.8058 28.7299 36.8261 28.6488 36.8666V33.3294H28.6184C31.0001 31.7078 32.6015 29.1335 32.8143 26.1538C33.9697 25.8902 35.4292 24.897 35.6623 22.2923V22.2619C35.6724 22.12 35.7231 20.8328 34.9224 19.9916C34.74 19.8092 34.5272 19.6673 34.2839 19.5659C38.4596 8.47809 30.7772 3.09633 29.865 2.49836C21.9596 -2.60975 15.4832 3.68417 14.49 4.71795C12.1488 5.71119 10.5576 7.30241 9.7569 9.44092C8.26703 13.4038 9.94947 18.0862 10.6792 19.8193C10.3853 20.0321 10.061 20.3463 9.82784 20.8125C9.39203 21.6842 9.42244 22.7585 9.89879 23.9544C9.9292 24.0659 10.6184 26.3463 12.5238 26.7416C12.8177 29.4173 14.1555 31.6774 16.1826 33.1774V36.8666C16.1015 36.8261 16.0001 36.8058 15.9089 36.8058C15.7062 36.7855 15.5137 36.8666 15.3616 37.0085L13.2028 39.0558C13.1015 39.147 13.0305 39.2686 13.0001 39.3903C12.6657 39.4308 12.3414 39.4713 12.017 39.5017C6.44271 40.1909 2.02379 44.772 1.49676 50.4071L0.0778448 65.6504C0.0373042 66.0659 0.341358 66.4409 0.756898 66.4815H0.827845C1.22311 66.4815 1.54744 66.1875 1.58798 65.7923L3.0069 50.549C3.47312 45.6234 7.3346 41.62 12.1995 41.0119C12.6049 40.9713 13.0001 40.9207 13.4055 40.8801L15.7062 46.6267C15.8177 46.9207 16.1015 47.1031 16.4056 47.1031C16.4765 47.1031 16.5474 47.093 16.6184 47.0727L19.0001 46.3936L19.9326 48.8767L18.392 65.6504C18.3515 66.0659 18.6555 66.4409 19.0812 66.4815H19.1522C19.5373 66.4815 19.8718 66.1875 19.9022 65.7923L21.4022 49.5254H23.4292L24.9292 65.7923C24.9596 66.1875 25.2941 66.4815 25.6792 66.4815H25.7501C26.1657 66.4409 26.4799 66.0659 26.4393 65.6504L24.8988 48.8767L25.8312 46.3936L28.213 47.0727C28.2839 47.093 28.3549 47.1031 28.4258 47.1031C28.7299 47.1031 29.0137 46.9207 29.1251 46.6267L31.4258 40.8801C31.8211 40.9207 32.2265 40.9612 32.6319 41.0119C33.6454 41.1436 34.6285 41.4173 35.561 41.8328L31.811 50.2855C31.7704 50.3767 31.7501 50.4781 31.7501 50.5896V50.6504C31.7603 52.5761 32.4292 54.1977 33.6657 55.3531C34.7805 56.3869 36.2704 56.9544 37.8718 56.9544C40.9022 56.9544 43.963 54.7957 43.9934 50.6504V50.5896C43.9934 50.4781 43.9731 50.3767 43.9326 50.2855L38.8549 38.843H46.061V60.2585C43.3954 60.9578 41.1251 62.8125 39.9799 65.4173C39.8684 65.6504 39.8988 65.924 40.0305 66.1369C40.1724 66.3497 40.4157 66.4815 40.6691 66.4815H56.0137C56.267 66.4815 56.5103 66.3497 56.6522 66.1369C56.7941 65.924 56.8143 65.6504 56.713 65.4173C55.5576 62.8125 53.2873 60.9477 50.6218 60.2585V38.843H57.8278L52.7603 50.2855C52.7197 50.3767 52.6893 50.4781 52.6893 50.5896V50.6504C52.7096 52.7179 53.49 54.299 54.6353 55.3531C55.7805 56.4173 57.3008 56.9544 58.811 56.9544C61.8414 56.9544 64.9022 54.7957 64.9326 50.6504V50.5896C64.9326 50.4781 64.9123 50.3767 64.8718 50.2855ZM15.6657 5.69092C16.6488 4.647 22.1724 -0.663807 29.0441 3.77538C29.8245 4.28214 36.2197 8.78214 33.1691 18.1673C32.7231 16.9916 32.2468 15.0963 32.2164 12.3598C32.2062 12.1166 32.0947 11.8936 31.892 11.7517C31.6995 11.6098 31.4461 11.5693 31.2231 11.6402C31.142 11.6707 23.3177 14.1132 17.7535 10.2315C15.7265 8.01187 15.6353 6.24836 15.6657 5.69092ZM11.186 9.96795C11.7333 8.51863 12.7468 7.38349 14.1961 6.56254C14.3278 7.52538 14.7637 8.9139 15.99 10.495C14.713 11.1842 12.7062 12.9882 11.4697 17.549C10.8312 15.522 10.2231 12.5119 11.186 9.96795ZM13.9832 25.9916C13.9832 25.7889 13.892 25.5963 13.74 25.4646C13.5981 25.3328 13.4157 25.272 13.2231 25.272H13.1826C11.936 25.3632 11.3583 23.549 11.3278 23.468C11.0137 22.647 10.9528 21.968 11.1758 21.5119C11.3988 21.0457 11.865 20.9038 11.8751 20.8936C11.9157 20.8835 11.9461 20.8632 11.9866 20.8531C11.9968 20.843 12.0069 20.843 12.017 20.843L12.0272 20.8328C12.1082 20.7821 12.1893 20.7315 12.24 20.6605L12.2704 20.6301C12.311 20.5693 12.3515 20.5085 12.3718 20.4375C12.3819 20.4071 12.392 20.3869 12.4022 20.3666C12.4022 20.3362 12.4224 20.3159 12.4224 20.2855C13.5677 13.4848 16.2941 11.9544 17.115 11.6402C22.1015 14.9544 28.3549 13.9207 30.7164 13.3531C30.9697 18.2382 32.5711 20.4578 32.642 20.5592C32.6522 20.5693 32.6724 20.5794 32.6826 20.5896C32.7332 20.6504 32.7941 20.7011 32.865 20.7416C32.8954 20.7619 32.9157 20.7821 32.9461 20.7923C32.9461 20.8024 32.9562 20.8024 32.9664 20.8125C33.0576 20.8531 33.1691 20.8632 33.2704 20.8632C33.6049 20.8632 33.7468 20.9646 33.8278 21.0457C34.1116 21.3396 34.1522 21.9578 34.1522 22.1707C33.9191 24.6842 32.2974 24.7044 32.115 24.7044C31.9123 24.6943 31.6995 24.7754 31.5474 24.9173C31.3954 25.0592 31.3143 25.2619 31.3143 25.4646C31.3143 30.0558 27.4326 33.6538 22.4765 33.6538C17.6724 33.6538 14.186 30.5119 13.9832 25.9916ZM27.0069 38.5389L22.4157 43.5051L17.8245 38.5389H17.8549L17.7028 38.3767V34.0997C19.1116 34.7889 20.7231 35.174 22.4765 35.174C24.1589 35.174 25.74 34.8193 27.1285 34.1707V38.3767L26.9765 38.5389H27.0069ZM16.8616 45.4308L14.6218 39.8058L15.8481 38.6402L21.017 44.2348L16.8616 45.4308ZM23.6015 48.0051H21.2299L20.4697 45.968L22.4157 45.4105L24.3616 45.968L23.6015 48.0051ZM27.9697 45.4308L23.8143 44.2348L28.9833 38.6402L30.2096 39.8058L27.9697 45.4308ZM48.3414 31.2416C49.0407 31.2416 49.6083 31.8092 49.6083 32.5085C49.6083 33.2078 49.0407 33.7754 48.3414 33.7754C47.642 33.7754 47.0745 33.2078 47.0745 32.5085C47.0745 31.8092 47.642 31.2416 48.3414 31.2416ZM37.8718 55.4342C36.6555 55.4342 35.5305 55.0085 34.6995 54.2382C33.9292 53.5186 33.4731 52.5254 33.3312 51.3497H42.4022C42.0576 54.1369 39.9089 55.4342 37.8718 55.4342ZM42.0677 49.8294H33.6758L37.8718 40.3835L42.0677 49.8294ZM54.7468 64.9612H41.9461C43.3346 62.8125 45.7366 61.4747 48.3515 61.4747C50.9562 61.4747 53.3583 62.8125 54.7468 64.9612ZM47.5812 60.0051V38.843H49.1015V60.0051C48.8481 59.9848 48.6049 59.9544 48.3515 59.9544C48.088 59.9544 47.8346 59.9848 47.5812 60.0051ZM35.8549 37.3227V35.2957H60.8278V37.3227H35.8549ZM58.811 40.3835L63.0069 49.8294H54.615L58.811 40.3835ZM58.811 55.4342C56.7738 55.4342 54.6251 54.1369 54.2806 51.3497H63.3414C63.0069 54.1369 60.8481 55.4342 58.811 55.4342Z" fill="white"/>
</svg>
