<svg width="56" height="51" viewBox="0 0 56 51" fill="none" xmlns="http://www.w3.org/2000/svg">
<path fill-rule="evenodd" clip-rule="evenodd" d="M43.6144 29.8822H38.8144V46.2662C38.8144 47.6102 39.7424 49.0822 41.2144 49.0822C42.5264 49.0822 43.6144 47.8342 43.6144 46.2662V29.8822ZM36.1904 50.5862H5.47038C2.84637 50.5862 0.734375 48.4422 0.734375 45.8182V5.17816C0.734375 2.55416 2.84637 0.410156 5.47038 0.410156H36.1904C38.8144 0.410156 40.9264 2.55416 40.9264 5.17816V9.01816H46.1744C47.0384 9.01816 47.8064 9.62616 47.9664 10.4582H50.1744C50.3024 9.17816 51.3904 8.18616 52.7024 8.18616C54.1424 8.18616 55.2624 9.33816 55.2624 10.7462V24.5062C55.2624 25.9142 54.1424 27.0662 52.7024 27.0662C51.3904 27.0662 50.3024 26.0742 50.1744 24.7622H47.9664C47.8384 25.3382 47.4544 25.8182 46.9104 26.0742V27.3222C46.9104 28.4742 46.1424 29.4662 45.1184 29.7862V46.2662C45.1184 49.7222 41.4704 51.8982 38.8784 49.7222C38.1104 50.2982 37.1504 50.5862 36.1904 50.5862ZM28.6384 10.7462V24.5062C28.6384 25.9142 30.7824 25.8822 30.7824 24.5062V11.0022C30.7824 9.11416 28.6384 9.40216 28.6384 10.7462ZM32.2864 23.2902H34.4304V11.9622H32.2864V23.2902ZM35.9024 24.3782C35.9024 24.6342 36.1264 24.7302 36.3504 24.7302H46.2064C46.5904 24.7302 46.5264 24.2822 46.5264 24.0262V18.3622H41.4704C40.5104 18.3622 40.5104 16.8902 41.4704 16.8902H46.5264V10.8422C46.5264 10.6502 46.3664 10.4902 46.1744 10.4902H36.3824C35.7424 10.4902 35.9024 11.2262 35.9024 12.4102H40.9584C41.9184 12.4102 41.9184 13.9142 40.9584 13.9142H35.9024V21.3382H40.9584C41.9184 21.3382 41.9184 22.8102 40.9584 22.8102H35.9024V24.3782ZM37.0224 27.3542C37.0224 27.9942 37.5344 28.3462 38.1424 28.3782H44.3504C45.5984 28.3782 45.4064 27.0662 45.4064 26.2342H37.0224V27.3542ZM5.47038 1.91416C3.67838 1.91416 2.20638 3.35416 2.20638 5.17816V45.8182C2.20638 47.6102 3.67838 49.0822 5.47038 49.0822H36.1904C36.7984 49.0822 37.4064 48.9222 37.9504 48.5702C37.5344 47.8662 37.3424 47.0662 37.3424 46.2342V29.7862C36.2864 29.4662 35.5184 28.4742 35.5184 27.3222V26.0742C34.9744 25.8502 34.5904 25.3702 34.4624 24.7622H32.2544C32.1264 26.2662 30.7184 27.2582 29.3424 27.0342C28.1264 26.8422 27.1344 25.7862 27.1344 24.5062V14.4262H19.1984C18.2064 14.4262 17.4064 13.6262 17.4064 12.6342V5.78616C17.4064 4.82616 18.2064 4.02616 19.1984 4.02616H33.9504C34.9424 4.02616 35.7424 4.82616 35.7424 5.78616V9.08216C36.3184 8.92216 38.7184 9.01816 39.4544 9.01816V5.17816C39.4544 3.38616 37.9824 1.91416 36.1904 1.91416H5.47038ZM29.7584 8.18616C31.0704 8.21816 32.1264 9.21016 32.2544 10.4582H34.2384V5.78616C34.2384 5.62616 34.1104 5.49816 33.9504 5.49816H19.1984C19.0384 5.49816 18.9104 5.62616 18.9104 5.78616V12.6342C18.9104 12.7942 19.0384 12.9222 19.1984 12.9222H27.1344L27.1664 10.6822C27.1664 9.24216 28.3504 8.15416 29.7584 8.18616ZM13.0224 14.4262H7.67838C6.71838 14.4262 5.91838 13.6262 5.91838 12.6342V5.78616C5.91838 4.82616 6.71838 4.02616 7.67838 4.02616H13.0224C13.9824 4.02616 14.7824 4.82616 14.7824 5.78616V12.6342C14.7824 13.6262 13.9824 14.4262 13.0224 14.4262ZM7.67838 5.49816C7.51838 5.49816 7.39038 5.62616 7.39038 5.78616V12.6342C7.39038 12.7942 7.51838 12.9222 7.67838 12.9222H13.0224C13.1824 12.9222 13.3104 12.7942 13.3104 12.6342V5.78616C13.3104 5.62616 13.1824 5.49816 13.0224 5.49816H7.67838ZM23.9664 19.3862H6.65438C5.69438 19.3862 5.69438 17.9142 6.65438 17.9142H23.9664C24.9264 17.9142 24.9264 19.3862 23.9664 19.3862ZM23.9664 24.5062H6.65438C5.69438 24.5062 5.69438 23.0342 6.65438 23.0342H23.9664C24.9264 23.0342 24.9264 24.5062 23.9664 24.5062ZM29.7584 29.6262H6.65438C5.69438 29.6262 5.69438 28.1542 6.65438 28.1542H29.7584C30.7184 28.1542 30.7184 29.6262 29.7584 29.6262ZM29.7584 34.7462H6.65438C5.69438 34.7462 5.69438 33.2742 6.65438 33.2742H29.7584C30.7184 33.2742 30.7184 34.7462 29.7584 34.7462ZM29.7584 39.8662H6.65438C5.69438 39.8662 5.69438 38.3622 6.65438 38.3622H29.7584C30.7184 38.3622 30.7184 39.8662 29.7584 39.8662ZM29.7584 44.9862H6.65438C5.69438 44.9862 5.69438 43.4822 6.65438 43.4822H29.7584C30.7184 43.4822 30.7184 44.9862 29.7584 44.9862ZM47.9984 11.9622V23.2902H50.1424V11.9622H47.9984ZM52.7024 9.65816C51.7104 9.65816 51.6464 10.5222 51.6464 11.1942V24.5062C51.6464 25.9142 53.7904 25.9142 53.7904 24.5062V10.7462C53.7904 10.1382 53.3104 9.65816 52.7024 9.65816Z" fill="white"/>
</svg>
