<svg width="64" height="65" viewBox="0 0 64 65" fill="none" xmlns="http://www.w3.org/2000/svg">
<g clip-path="url(#clip0_100_118211)">
<path d="M11.1994 55.9653H41.0661C41.6552 55.9653 42.1327 55.4877 42.1327 54.8987C42.1327 54.3097 41.6552 53.832 41.0661 53.832H11.1994C10.6103 53.832 10.1328 54.3095 10.1328 54.8987C10.1328 55.4878 10.6103 55.9653 11.1994 55.9653Z" fill="white"/>
<path d="M18.6661 58.1016H11.1994C10.6103 58.1016 10.1328 58.5792 10.1328 59.1682C10.1328 59.7573 10.6104 60.2348 11.1994 60.2348H18.6661C19.2552 60.2348 19.7327 59.7572 19.7327 59.1682C19.7328 58.5792 19.2552 58.1016 18.6661 58.1016Z" fill="white"/>
<path d="M12.2674 64.5H56.0008C57.179 64.5 58.1342 63.5449 58.1342 62.3666V51.4034C58.792 51.0254 59.1985 50.3254 59.2008 49.5666V2.63337C59.2008 1.45512 58.2457 0.5 57.0674 0.5H12.2674C8.14591 0.50525 4.80603 3.84513 4.80078 7.96663C4.81253 39.204 4.80078 42.3229 4.80078 57.0332C4.80603 61.1549 8.14591 64.4948 12.2674 64.5ZM12.2674 62.3666C9.32191 62.3666 6.93403 59.9787 6.93403 57.0332C6.93403 54.0877 9.32191 51.6999 12.2674 51.6999H51.734V53.8332H45.334C44.7449 53.8332 44.2674 54.3107 44.2674 54.8999C44.2674 55.489 44.7449 55.9665 45.334 55.9665H51.734V58.1H22.934C22.3449 58.1 21.8674 58.5776 21.8674 59.1666C21.8674 59.7558 22.3449 60.2332 22.934 60.2332H51.734V62.3666H12.2674ZM53.8674 62.3666V51.7H56.0008V62.3666H53.8674ZM57.0674 49.5666H14.4008V2.63337H57.0674V49.5666ZM6.93416 7.96663C6.93766 5.02262 9.32341 2.63687 12.2675 2.63325V49.5666C10.2587 49.5661 8.33491 50.3784 6.93416 51.8184V7.96663Z" fill="white"/>
<path d="M29.6473 34.3212C30.0413 34.7147 30.6718 34.7388 31.0948 34.3767L46.0282 21.5767C46.4494 21.1876 46.4876 20.5349 46.1146 20.0994C45.7416 19.6638 45.0909 19.6012 44.6416 19.9576L30.4549 32.1176L26.8858 28.5496C26.4673 28.1453 25.8019 28.1511 25.3906 28.5626C24.9791 28.9741 24.9733 29.6393 25.3776 30.0578L29.6473 34.3212Z" fill="white"/>
<path d="M35.7349 44.2316C45.7497 44.2316 53.8683 36.113 53.8683 26.0982C53.8683 16.0835 45.7497 7.96484 35.7349 7.96484C25.7202 7.96484 17.6016 16.0835 17.6016 26.0982C17.6127 36.1083 25.7248 44.2203 35.7349 44.2316ZM35.7349 10.0982C44.5714 10.0982 51.7349 17.2617 51.7349 26.0982C51.7349 34.9347 44.5714 42.0982 35.7349 42.0982C26.8984 42.0982 19.7349 34.9347 19.7349 26.0982C19.7449 17.2658 26.9024 10.1082 35.7349 10.0982Z" fill="white"/>
</g>
<defs>
<clipPath id="clip0_100_118211">
<rect width="64" height="64" fill="white" transform="translate(0 0.5)"/>
</clipPath>
</defs>
</svg>
