<svg width="65" height="65" viewBox="0 0 65 65" fill="none" xmlns="http://www.w3.org/2000/svg">
<path d="M52.5 11.1667H48.4253C47.7587 5.17467 42.6653 0.5 36.5 0.5H12.5C5.884 0.5 0.5 5.884 0.5 12.5V49.444C0.5 51.0653 1.388 52.5533 2.82 53.3187C3.47333 53.668 4.18533 53.8387 4.89733 53.8387C5.748 53.8387 6.596 53.5907 7.332 53.1027L16.7293 46.836C17.82 52.3373 22.684 56.4973 28.5 56.4973H46.764L57.6707 63.7693C58.404 64.26 59.2547 64.5053 60.1053 64.5053C60.8173 64.5053 61.5293 64.3347 62.18 63.9853C63.612 63.2173 64.5 61.732 64.5 60.1107V23.1667C64.5 16.5507 59.116 11.1667 52.5 11.1667ZM5.852 50.8867C5.31333 51.2493 4.64933 51.2787 4.07867 50.9693C3.508 50.6653 3.16667 50.0947 3.16667 49.4467V12.5C3.16667 7.35333 7.35333 3.16667 12.5 3.16667H36.5C41.6467 3.16667 45.8333 7.35333 45.8333 12.5V33.8333C45.8333 38.98 41.6467 43.1667 36.5 43.1667H17.8333C17.3667 43.1667 17.092 43.3907 17.0813 43.3987L5.852 50.884V50.8867ZM61.8333 60.1133C61.8333 60.7613 61.492 61.332 60.9213 61.636C60.3427 61.9453 59.6893 61.9107 59.1453 61.5533L47.9053 54.0573C47.6867 53.9107 47.428 53.8333 47.1667 53.8333H28.5C23.8067 53.8333 19.9107 50.3507 19.2627 45.8333H36.5C43.116 45.8333 48.5 40.4493 48.5 33.8333V13.8333H52.5C57.6467 13.8333 61.8333 18.02 61.8333 23.1667V60.1133ZM16.5267 14.9C17.3827 10.6813 21.5987 7.85733 25.94 8.62533C29.1613 9.188 31.8093 11.8333 32.3747 15.06C32.972 18.4547 31.3587 21.852 28.3587 23.508C26.4467 24.5613 25.8333 25.2867 25.8333 26.4973C25.8333 27.2333 25.236 27.8307 24.5 27.8307C23.764 27.8307 23.1667 27.2333 23.1667 26.4973C23.1667 23.3213 25.708 21.924 27.0707 21.172C29.1027 20.052 30.1533 17.8333 29.7453 15.5213C29.3693 13.38 27.6173 11.6253 25.4787 11.2493C22.5427 10.7373 19.7107 12.6147 19.14 15.428C18.9933 16.1507 18.292 16.6173 17.5667 16.4707C16.844 16.3213 16.38 15.62 16.524 14.8973L16.5267 14.9ZM27.1667 35.1667C27.1667 36.6387 25.972 37.8333 24.5 37.8333C23.028 37.8333 21.8333 36.6387 21.8333 35.1667C21.8333 33.6947 23.028 32.5 24.5 32.5C25.972 32.5 27.1667 33.6947 27.1667 35.1667Z" fill="white"/>
</svg>
